<svg width="259" height="259" viewBox="0 0 259 259" fill="none" xmlns="http://www.w3.org/2000/svg">
<rect width="259" height="259" fill="#F4F4F4"/>
<path d="M96.08 150.096C96.4053 150.155 96.6773 150.315 96.896 150.576C97.12 150.837 97.232 151.144 97.232 151.496C97.232 151.784 97.1627 152.043 97.024 152.272C96.8907 152.496 96.688 152.675 96.416 152.808C96.1493 152.936 95.824 153 95.44 153H93.656V147.384H95.408C95.968 147.384 96.3893 147.515 96.672 147.776C96.96 148.032 97.104 148.365 97.104 148.776C97.104 149.133 97.008 149.424 96.816 149.648C96.624 149.867 96.3787 150.016 96.08 150.096ZM94.016 149.936H95.424C95.8453 149.936 96.168 149.837 96.392 149.64C96.6213 149.437 96.736 149.16 96.736 148.808C96.736 148.467 96.624 148.197 96.4 148C96.176 147.803 95.8373 147.704 95.384 147.704H94.016V149.936ZM95.416 152.688C95.8693 152.688 96.224 152.581 96.48 152.368C96.7413 152.149 96.872 151.851 96.872 151.472C96.872 151.099 96.7387 150.803 96.472 150.584C96.2107 150.36 95.8507 150.248 95.392 150.248H94.016V152.688H95.416ZM100.793 153.064C100.275 153.064 99.8088 152.944 99.3928 152.704C98.9768 152.459 98.6515 152.117 98.4168 151.68C98.1821 151.243 98.0648 150.749 98.0648 150.2C98.0648 149.645 98.1821 149.152 98.4168 148.72C98.6515 148.283 98.9768 147.944 99.3928 147.704C99.8088 147.459 100.275 147.336 100.793 147.336C101.31 147.336 101.777 147.459 102.193 147.704C102.609 147.944 102.934 148.283 103.169 148.72C103.403 149.152 103.521 149.645 103.521 150.2C103.521 150.749 103.403 151.243 103.169 151.68C102.934 152.117 102.609 152.459 102.193 152.704C101.777 152.944 101.31 153.064 100.793 153.064ZM100.793 152.744C101.235 152.744 101.635 152.64 101.993 152.432C102.35 152.224 102.63 151.928 102.833 151.544C103.041 151.16 103.145 150.712 103.145 150.2C103.145 149.683 103.041 149.232 102.833 148.848C102.63 148.464 102.35 148.168 101.993 147.96C101.635 147.752 101.235 147.648 100.793 147.648C100.35 147.648 99.9501 147.752 99.5928 147.96C99.2355 148.168 98.9528 148.464 98.7448 148.848C98.5368 149.232 98.4328 149.683 98.4328 150.2C98.4328 150.712 98.5368 151.16 98.7448 151.544C98.9528 151.928 99.2355 152.224 99.5928 152.432C99.9501 152.64 100.35 152.744 100.793 152.744ZM107.113 153.064C106.596 153.064 106.129 152.944 105.713 152.704C105.297 152.459 104.972 152.117 104.737 151.68C104.502 151.243 104.385 150.749 104.385 150.2C104.385 149.645 104.502 149.152 104.737 148.72C104.972 148.283 105.297 147.944 105.713 147.704C106.129 147.459 106.596 147.336 107.113 147.336C107.63 147.336 108.097 147.459 108.513 147.704C108.929 147.944 109.254 148.283 109.489 148.72C109.724 149.152 109.841 149.645 109.841 150.2C109.841 150.749 109.724 151.243 109.489 151.68C109.254 152.117 108.929 152.459 108.513 152.704C108.097 152.944 107.63 153.064 107.113 153.064ZM107.113 152.744C107.556 152.744 107.956 152.64 108.313 152.432C108.67 152.224 108.95 151.928 109.153 151.544C109.361 151.16 109.465 150.712 109.465 150.2C109.465 149.683 109.361 149.232 109.153 148.848C108.95 148.464 108.67 148.168 108.313 147.96C107.956 147.752 107.556 147.648 107.113 147.648C106.67 147.648 106.27 147.752 105.913 147.96C105.556 148.168 105.273 148.464 105.065 148.848C104.857 149.232 104.753 149.683 104.753 150.2C104.753 150.712 104.857 151.16 105.065 151.544C105.273 151.928 105.556 152.224 105.913 152.432C106.27 152.64 106.67 152.744 107.113 152.744ZM113.873 153L111.289 150.352V153H110.929V147.384H111.289V150.056L113.873 147.384H114.337L111.601 150.2L114.345 153H113.873ZM115.539 147.384V153H115.179V147.384H115.539ZM120.875 153H120.515L117.219 147.976V153H116.859V147.392H117.219L120.515 152.4V147.392H120.875V153ZM126.811 149.04C126.651 148.619 126.384 148.283 126.011 148.032C125.643 147.781 125.206 147.656 124.699 147.656C124.256 147.656 123.856 147.76 123.499 147.968C123.142 148.176 122.859 148.472 122.651 148.856C122.443 149.24 122.339 149.688 122.339 150.2C122.339 150.712 122.443 151.16 122.651 151.544C122.859 151.928 123.142 152.224 123.499 152.432C123.856 152.635 124.256 152.736 124.699 152.736C125.126 152.736 125.512 152.64 125.859 152.448C126.206 152.256 126.483 151.984 126.691 151.632C126.899 151.275 127.014 150.859 127.035 150.384H124.531V150.08H127.403V150.32C127.387 150.843 127.262 151.312 127.027 151.728C126.792 152.144 126.472 152.469 126.067 152.704C125.662 152.939 125.206 153.056 124.699 153.056C124.182 153.056 123.715 152.936 123.299 152.696C122.883 152.451 122.558 152.112 122.323 151.68C122.088 151.243 121.971 150.749 121.971 150.2C121.971 149.645 122.088 149.152 122.323 148.72C122.558 148.283 122.883 147.944 123.299 147.704C123.715 147.459 124.182 147.336 124.699 147.336C125.302 147.336 125.822 147.488 126.259 147.792C126.702 148.091 127.024 148.507 127.227 149.04H126.811ZM132.374 153.056C132.011 153.056 131.694 152.992 131.422 152.864C131.15 152.736 130.936 152.563 130.782 152.344C130.632 152.125 130.547 151.883 130.526 151.616H130.902C130.944 151.909 131.08 152.171 131.31 152.4C131.544 152.629 131.899 152.744 132.374 152.744C132.651 152.744 132.891 152.693 133.094 152.592C133.302 152.491 133.462 152.352 133.574 152.176C133.686 152 133.742 151.805 133.742 151.592C133.742 151.32 133.675 151.104 133.542 150.944C133.414 150.784 133.251 150.664 133.054 150.584C132.862 150.504 132.6 150.419 132.27 150.328C131.907 150.232 131.614 150.136 131.39 150.04C131.171 149.944 130.984 149.797 130.83 149.6C130.68 149.397 130.606 149.123 130.606 148.776C130.606 148.509 130.675 148.267 130.814 148.048C130.958 147.824 131.16 147.648 131.422 147.52C131.683 147.392 131.984 147.328 132.326 147.328C132.822 147.328 133.222 147.451 133.526 147.696C133.83 147.941 134.011 148.243 134.07 148.6H133.686C133.654 148.456 133.582 148.309 133.47 148.16C133.363 148.011 133.208 147.888 133.006 147.792C132.808 147.691 132.571 147.64 132.294 147.64C131.92 147.64 131.606 147.744 131.35 147.952C131.094 148.155 130.966 148.427 130.966 148.768C130.966 149.04 131.032 149.259 131.166 149.424C131.299 149.584 131.462 149.707 131.654 149.792C131.851 149.872 132.115 149.955 132.446 150.04C132.814 150.141 133.104 150.24 133.318 150.336C133.536 150.427 133.72 150.573 133.87 150.776C134.024 150.973 134.102 151.243 134.102 151.584C134.102 151.835 134.035 152.072 133.902 152.296C133.768 152.52 133.571 152.704 133.31 152.848C133.054 152.987 132.742 153.056 132.374 153.056ZM137.683 153.064C137.166 153.064 136.699 152.944 136.283 152.704C135.867 152.459 135.542 152.117 135.307 151.68C135.073 151.243 134.955 150.749 134.955 150.2C134.955 149.645 135.073 149.152 135.307 148.72C135.542 148.283 135.867 147.944 136.283 147.704C136.699 147.459 137.166 147.336 137.683 147.336C138.201 147.336 138.667 147.459 139.083 147.704C139.499 147.944 139.825 148.283 140.059 148.72C140.294 149.152 140.411 149.645 140.411 150.2C140.411 150.749 140.294 151.243 140.059 151.68C139.825 152.117 139.499 152.459 139.083 152.704C138.667 152.944 138.201 153.064 137.683 153.064ZM137.683 152.744C138.126 152.744 138.526 152.64 138.883 152.432C139.241 152.224 139.521 151.928 139.723 151.544C139.931 151.16 140.035 150.712 140.035 150.2C140.035 149.683 139.931 149.232 139.723 148.848C139.521 148.464 139.241 148.168 138.883 147.96C138.526 147.752 138.126 147.648 137.683 147.648C137.241 147.648 136.841 147.752 136.483 147.96C136.126 148.168 135.843 148.464 135.635 148.848C135.427 149.232 135.323 149.683 135.323 150.2C135.323 150.712 135.427 151.16 135.635 151.544C135.843 151.928 136.126 152.224 136.483 152.432C136.841 152.64 137.241 152.744 137.683 152.744ZM144.396 147.384V147.688H141.86V150.032H144.076V150.336H141.86V153H141.5V147.384H144.396ZM151.887 147.384L150.335 153H149.943L148.407 147.944L146.847 153H146.471L144.943 147.384H145.327L146.671 152.496L148.215 147.384H148.615L150.143 152.528L151.495 147.384H151.887ZM155.965 151.56H153.301L152.765 153H152.373L154.437 147.512H154.837L156.893 153H156.501L155.965 151.56ZM155.853 151.256L154.637 147.984L153.413 151.256H155.853ZM160.829 153L159.389 150.608H159.357H158.157V153H157.797V147.384H159.341C159.965 147.384 160.431 147.531 160.741 147.824C161.055 148.117 161.213 148.507 161.213 148.992C161.213 149.424 161.09 149.781 160.845 150.064C160.605 150.341 160.253 150.512 159.789 150.576L161.261 153H160.829ZM158.157 150.304H159.357C159.853 150.304 160.223 150.184 160.469 149.944C160.714 149.704 160.837 149.387 160.837 148.992C160.837 148.133 160.338 147.704 159.341 147.704H158.157V150.304ZM162.641 147.688V150.032H164.881V150.336H162.641V152.696H165.121V153H162.281V147.384H165.121V147.688H162.641Z" fill="#333333"/>
<path d="M117.184 119H115.376V107.832H120.192C121.195 107.832 121.984 108.136 122.56 108.744C123.136 109.341 123.424 110.157 123.424 111.192C123.424 111.992 123.237 112.659 122.864 113.192C122.501 113.715 121.963 114.083 121.248 114.296L123.664 119H121.648L119.408 114.488H117.184V119ZM120.064 112.968C120.523 112.968 120.88 112.851 121.136 112.616C121.392 112.371 121.52 112.024 121.52 111.576V110.808C121.52 110.36 121.392 110.019 121.136 109.784C120.88 109.539 120.523 109.416 120.064 109.416H117.184V112.968H120.064ZM125.86 119V107.832H133.012V109.432H127.668V112.536H132.516V114.136H127.668V117.4H133.012V119H125.86ZM138.689 119.192C137.75 119.192 136.95 119.021 136.289 118.68C135.638 118.339 135.078 117.88 134.609 117.304L135.857 116.136C136.251 116.616 136.683 116.979 137.153 117.224C137.633 117.469 138.177 117.592 138.785 117.592C139.499 117.592 140.038 117.432 140.401 117.112C140.763 116.792 140.945 116.36 140.945 115.816C140.945 115.379 140.817 115.032 140.561 114.776C140.305 114.52 139.851 114.328 139.201 114.2L138.209 114.024C137.121 113.821 136.305 113.464 135.761 112.952C135.217 112.44 134.945 111.736 134.945 110.84C134.945 110.349 135.035 109.907 135.217 109.512C135.409 109.107 135.67 108.771 136.001 108.504C136.342 108.227 136.753 108.013 137.233 107.864C137.713 107.715 138.251 107.64 138.849 107.64C139.691 107.64 140.422 107.789 141.041 108.088C141.659 108.376 142.187 108.797 142.625 109.352L141.361 110.472C141.073 110.099 140.721 109.8 140.305 109.576C139.889 109.352 139.371 109.24 138.753 109.24C138.113 109.24 137.617 109.368 137.265 109.624C136.913 109.88 136.737 110.253 136.737 110.744C136.737 111.213 136.881 111.565 137.169 111.8C137.457 112.024 137.905 112.195 138.513 112.312L139.505 112.52C140.625 112.733 141.441 113.096 141.953 113.608C142.475 114.12 142.737 114.824 142.737 115.72C142.737 116.243 142.646 116.717 142.465 117.144C142.283 117.571 142.017 117.939 141.665 118.248C141.323 118.547 140.902 118.781 140.401 118.952C139.899 119.112 139.329 119.192 138.689 119.192ZM144.907 119V107.832H152.059V109.432H146.715V112.536H151.563V114.136H146.715V117.4H152.059V119H144.907ZM156.2 119H154.392V107.832H159.208C160.21 107.832 161 108.136 161.576 108.744C162.152 109.341 162.44 110.157 162.44 111.192C162.44 111.992 162.253 112.659 161.88 113.192C161.517 113.715 160.978 114.083 160.264 114.296L162.68 119H160.664L158.424 114.488H156.2V119ZM159.08 112.968C159.538 112.968 159.896 112.851 160.152 112.616C160.408 112.371 160.536 112.024 160.536 111.576V110.808C160.536 110.36 160.408 110.019 160.152 109.784C159.896 109.539 159.538 109.416 159.08 109.416H156.2V112.968H159.08ZM167.015 119L163.351 107.832H165.223L166.999 113.352L168.071 117.24H168.135L169.223 113.352L170.999 107.832H172.823L169.111 119H167.015ZM174.485 119V107.832H181.637V109.432H176.293V112.536H181.141V114.136H176.293V117.4H181.637V119H174.485Z" fill="#333333"/>
<path d="M115.376 136V124.832H120.176C121.211 124.832 122.011 125.136 122.576 125.744C123.141 126.352 123.424 127.168 123.424 128.192C123.424 129.216 123.141 130.032 122.576 130.64C122.011 131.248 121.211 131.552 120.176 131.552H117.184V136H115.376ZM117.184 129.968H120.064C120.523 129.968 120.88 129.851 121.136 129.616C121.392 129.371 121.52 129.024 121.52 128.576V127.808C121.52 127.36 121.392 127.019 121.136 126.784C120.88 126.539 120.523 126.416 120.064 126.416H117.184V129.968ZM127.215 136H125.407V124.832H130.223C131.226 124.832 132.015 125.136 132.591 125.744C133.167 126.341 133.455 127.157 133.455 128.192C133.455 128.992 133.269 129.659 132.895 130.192C132.533 130.715 131.994 131.083 131.279 131.296L133.695 136H131.679L129.439 131.488H127.215V136ZM130.095 129.968C130.554 129.968 130.911 129.851 131.167 129.616C131.423 129.371 131.551 129.024 131.551 128.576V127.808C131.551 127.36 131.423 127.019 131.167 126.784C130.911 126.539 130.554 126.416 130.095 126.416H127.215V129.968H130.095ZM140.055 136.192C139.33 136.192 138.669 136.069 138.071 135.824C137.485 135.568 136.978 135.2 136.551 134.72C136.135 134.229 135.81 133.627 135.575 132.912C135.351 132.187 135.239 131.355 135.239 130.416C135.239 129.477 135.351 128.651 135.575 127.936C135.81 127.211 136.135 126.608 136.551 126.128C136.978 125.637 137.485 125.269 138.071 125.024C138.669 124.768 139.33 124.64 140.055 124.64C140.781 124.64 141.437 124.768 142.023 125.024C142.621 125.269 143.127 125.637 143.543 126.128C143.97 126.608 144.295 127.211 144.519 127.936C144.754 128.651 144.871 129.477 144.871 130.416C144.871 131.355 144.754 132.187 144.519 132.912C144.295 133.627 143.97 134.229 143.543 134.72C143.127 135.2 142.621 135.568 142.023 135.824C141.437 136.069 140.781 136.192 140.055 136.192ZM140.055 134.576C140.482 134.576 140.871 134.501 141.223 134.352C141.586 134.203 141.89 133.989 142.135 133.712C142.391 133.424 142.589 133.077 142.727 132.672C142.866 132.267 142.935 131.808 142.935 131.296V129.536C142.935 129.024 142.866 128.565 142.727 128.16C142.589 127.755 142.391 127.413 142.135 127.136C141.89 126.848 141.586 126.629 141.223 126.48C140.871 126.331 140.482 126.256 140.055 126.256C139.618 126.256 139.223 126.331 138.871 126.48C138.519 126.629 138.215 126.848 137.959 127.136C137.714 127.413 137.522 127.755 137.383 128.16C137.245 128.565 137.175 129.024 137.175 129.536V131.296C137.175 131.808 137.245 132.267 137.383 132.672C137.522 133.077 137.714 133.424 137.959 133.712C138.215 133.989 138.519 134.203 138.871 134.352C139.223 134.501 139.618 134.576 140.055 134.576Z" fill="#333333"/>
<path d="M84.3333 104V110.667M97.6667 104V110.667M76 117.333H106M86 127.333L89.3333 130.667L96 124M79.3333 107.333H102.667C104.508 107.333 106 108.826 106 110.667V134C106 135.841 104.508 137.333 102.667 137.333H79.3333C77.4924 137.333 76 135.841 76 134V110.667C76 108.826 77.4924 107.333 79.3333 107.333Z" stroke="#6366F1" stroke-width="3" stroke-linecap="round" stroke-linejoin="round"/>
</svg>
