<svg width="109" height="54" viewBox="0 0 109 54" fill="none" xmlns="http://www.w3.org/2000/svg">
<path d="M22.08 48.096C22.4053 48.1547 22.6773 48.3147 22.896 48.576C23.12 48.8373 23.232 49.144 23.232 49.496C23.232 49.784 23.1627 50.0427 23.024 50.272C22.8907 50.496 22.688 50.6747 22.416 50.808C22.1493 50.936 21.824 51 21.44 51H19.656V45.384H21.408C21.968 45.384 22.3893 45.5147 22.672 45.776C22.96 46.032 23.104 46.3653 23.104 46.776C23.104 47.1333 23.008 47.424 22.816 47.648C22.624 47.8667 22.3787 48.016 22.08 48.096ZM20.016 47.936H21.424C21.8453 47.936 22.168 47.8373 22.392 47.64C22.6213 47.4373 22.736 47.16 22.736 46.808C22.736 46.4667 22.624 46.1973 22.4 46C22.176 45.8027 21.8373 45.704 21.384 45.704H20.016V47.936ZM21.416 50.688C21.8693 50.688 22.224 50.5813 22.48 50.368C22.7413 50.1493 22.872 49.8507 22.872 49.472C22.872 49.0987 22.7387 48.8027 22.472 48.584C22.2107 48.36 21.8507 48.248 21.392 48.248H20.016V50.688H21.416ZM26.7928 51.064C26.2755 51.064 25.8088 50.944 25.3928 50.704C24.9768 50.4587 24.6515 50.1173 24.4168 49.68C24.1821 49.2427 24.0648 48.7493 24.0648 48.2C24.0648 47.6453 24.1821 47.152 24.4168 46.72C24.6515 46.2827 24.9768 45.944 25.3928 45.704C25.8088 45.4587 26.2755 45.336 26.7928 45.336C27.3101 45.336 27.7768 45.4587 28.1928 45.704C28.6088 45.944 28.9341 46.2827 29.1688 46.72C29.4035 47.152 29.5208 47.6453 29.5208 48.2C29.5208 48.7493 29.4035 49.2427 29.1688 49.68C28.9341 50.1173 28.6088 50.4587 28.1928 50.704C27.7768 50.944 27.3101 51.064 26.7928 51.064ZM26.7928 50.744C27.2355 50.744 27.6355 50.64 27.9928 50.432C28.3501 50.224 28.6301 49.928 28.8328 49.544C29.0408 49.16 29.1448 48.712 29.1448 48.2C29.1448 47.6827 29.0408 47.232 28.8328 46.848C28.6301 46.464 28.3501 46.168 27.9928 45.96C27.6355 45.752 27.2355 45.648 26.7928 45.648C26.3501 45.648 25.9501 45.752 25.5928 45.96C25.2355 46.168 24.9528 46.464 24.7448 46.848C24.5368 47.232 24.4328 47.6827 24.4328 48.2C24.4328 48.712 24.5368 49.16 24.7448 49.544C24.9528 49.928 25.2355 50.224 25.5928 50.432C25.9501 50.64 26.3501 50.744 26.7928 50.744ZM33.1131 51.064C32.5958 51.064 32.1291 50.944 31.7131 50.704C31.2971 50.4587 30.9718 50.1173 30.7371 49.68C30.5025 49.2427 30.3851 48.7493 30.3851 48.2C30.3851 47.6453 30.5025 47.152 30.7371 46.72C30.9718 46.2827 31.2971 45.944 31.7131 45.704C32.1291 45.4587 32.5958 45.336 33.1131 45.336C33.6305 45.336 34.0971 45.4587 34.5131 45.704C34.9291 45.944 35.2545 46.2827 35.4891 46.72C35.7238 47.152 35.8411 47.6453 35.8411 48.2C35.8411 48.7493 35.7238 49.2427 35.4891 49.68C35.2545 50.1173 34.9291 50.4587 34.5131 50.704C34.0971 50.944 33.6305 51.064 33.1131 51.064ZM33.1131 50.744C33.5558 50.744 33.9558 50.64 34.3131 50.432C34.6705 50.224 34.9505 49.928 35.1531 49.544C35.3611 49.16 35.4651 48.712 35.4651 48.2C35.4651 47.6827 35.3611 47.232 35.1531 46.848C34.9505 46.464 34.6705 46.168 34.3131 45.96C33.9558 45.752 33.5558 45.648 33.1131 45.648C32.6705 45.648 32.2705 45.752 31.9131 45.96C31.5558 46.168 31.2731 46.464 31.0651 46.848C30.8571 47.232 30.7531 47.6827 30.7531 48.2C30.7531 48.712 30.8571 49.16 31.0651 49.544C31.2731 49.928 31.5558 50.224 31.9131 50.432C32.2705 50.64 32.6705 50.744 33.1131 50.744ZM39.8734 51L37.2894 48.352V51H36.9294V45.384H37.2894V48.056L39.8734 45.384H40.3374L37.6014 48.2L40.3454 51H39.8734ZM41.5394 45.384V51H41.1794V45.384H41.5394ZM46.8751 51H46.5151L43.2191 45.976V51H42.8591V45.392H43.2191L46.5151 50.4V45.392H46.8751V51ZM52.8111 47.04C52.6511 46.6187 52.3844 46.2827 52.0111 46.032C51.6431 45.7813 51.2057 45.656 50.6991 45.656C50.2564 45.656 49.8564 45.76 49.4991 45.968C49.1417 46.176 48.8591 46.472 48.6511 46.856C48.4431 47.24 48.3391 47.688 48.3391 48.2C48.3391 48.712 48.4431 49.16 48.6511 49.544C48.8591 49.928 49.1417 50.224 49.4991 50.432C49.8564 50.6347 50.2564 50.736 50.6991 50.736C51.1257 50.736 51.5124 50.64 51.8591 50.448C52.2057 50.256 52.4831 49.984 52.6911 49.632C52.8991 49.2747 53.0137 48.8587 53.0351 48.384H50.5311V48.08H53.4031V48.32C53.3871 48.8427 53.2617 49.312 53.0271 49.728C52.7924 50.144 52.4724 50.4693 52.0671 50.704C51.6617 50.9387 51.2057 51.056 50.6991 51.056C50.1817 51.056 49.7151 50.936 49.2991 50.696C48.8831 50.4507 48.5577 50.112 48.3231 49.68C48.0884 49.2427 47.9711 48.7493 47.9711 48.2C47.9711 47.6453 48.0884 47.152 48.3231 46.72C48.5577 46.2827 48.8831 45.944 49.2991 45.704C49.7151 45.4587 50.1817 45.336 50.6991 45.336C51.3017 45.336 51.8217 45.488 52.2591 45.792C52.7017 46.0907 53.0244 46.5067 53.2271 47.04H52.8111ZM58.3738 51.056C58.0111 51.056 57.6938 50.992 57.4218 50.864C57.1498 50.736 56.9364 50.5627 56.7818 50.344C56.6324 50.1253 56.5471 49.8827 56.5258 49.616H56.9018C56.9444 49.9093 57.0804 50.1707 57.3098 50.4C57.5444 50.6293 57.8991 50.744 58.3738 50.744C58.6511 50.744 58.8911 50.6933 59.0938 50.592C59.3018 50.4907 59.4618 50.352 59.5738 50.176C59.6858 50 59.7418 49.8053 59.7418 49.592C59.7418 49.32 59.6751 49.104 59.5418 48.944C59.4138 48.784 59.2511 48.664 59.0538 48.584C58.8618 48.504 58.6004 48.4187 58.2698 48.328C57.9071 48.232 57.6138 48.136 57.3898 48.04C57.1711 47.944 56.9844 47.7973 56.8298 47.6C56.6804 47.3973 56.6058 47.1227 56.6058 46.776C56.6058 46.5093 56.6751 46.2667 56.8138 46.048C56.9578 45.824 57.1604 45.648 57.4218 45.52C57.6831 45.392 57.9844 45.328 58.3258 45.328C58.8218 45.328 59.2218 45.4507 59.5258 45.696C59.8298 45.9413 60.0111 46.2427 60.0698 46.6H59.6858C59.6538 46.456 59.5818 46.3093 59.4698 46.16C59.3631 46.0107 59.2084 45.888 59.0058 45.792C58.8084 45.6907 58.5711 45.64 58.2938 45.64C57.9204 45.64 57.6058 45.744 57.3498 45.952C57.0938 46.1547 56.9658 46.4267 56.9658 46.768C56.9658 47.04 57.0324 47.2587 57.1658 47.424C57.2991 47.584 57.4618 47.7067 57.6538 47.792C57.8511 47.872 58.1151 47.9547 58.4457 48.04C58.8138 48.1413 59.1044 48.24 59.3178 48.336C59.5364 48.4267 59.7204 48.5733 59.8698 48.776C60.0244 48.9733 60.1018 49.2427 60.1018 49.584C60.1018 49.8347 60.0351 50.072 59.9018 50.296C59.7684 50.52 59.5711 50.704 59.3098 50.848C59.0538 50.9867 58.7418 51.056 58.3738 51.056ZM63.6834 51.064C63.1661 51.064 62.6994 50.944 62.2834 50.704C61.8674 50.4587 61.5421 50.1173 61.3074 49.68C61.0728 49.2427 60.9554 48.7493 60.9554 48.2C60.9554 47.6453 61.0728 47.152 61.3074 46.72C61.5421 46.2827 61.8674 45.944 62.2834 45.704C62.6994 45.4587 63.1661 45.336 63.6834 45.336C64.2008 45.336 64.6674 45.4587 65.0834 45.704C65.4994 45.944 65.8248 46.2827 66.0594 46.72C66.2941 47.152 66.4114 47.6453 66.4114 48.2C66.4114 48.7493 66.2941 49.2427 66.0594 49.68C65.8248 50.1173 65.4994 50.4587 65.0834 50.704C64.6674 50.944 64.2008 51.064 63.6834 51.064ZM63.6834 50.744C64.1261 50.744 64.5261 50.64 64.8834 50.432C65.2408 50.224 65.5208 49.928 65.7234 49.544C65.9314 49.16 66.0354 48.712 66.0354 48.2C66.0354 47.6827 65.9314 47.232 65.7234 46.848C65.5208 46.464 65.2408 46.168 64.8834 45.96C64.5261 45.752 64.1261 45.648 63.6834 45.648C63.2408 45.648 62.8408 45.752 62.4834 45.96C62.1261 46.168 61.8434 46.464 61.6354 46.848C61.4274 47.232 61.3234 47.6827 61.3234 48.2C61.3234 48.712 61.4274 49.16 61.6354 49.544C61.8434 49.928 62.1261 50.224 62.4834 50.432C62.8408 50.64 63.2408 50.744 63.6834 50.744ZM70.3958 45.384V45.688H67.8598V48.032H70.0758V48.336H67.8598V51H67.4998V45.384H70.3958ZM77.8873 45.384L76.3353 51H75.9433L74.4073 45.944L72.8473 51H72.4713L70.9433 45.384H71.3273L72.6713 50.496L74.2153 45.384H74.6153L76.1433 50.528L77.4953 45.384H77.8873ZM81.965 49.56H79.301L78.765 51H78.373L80.437 45.512H80.837L82.893 51H82.501L81.965 49.56ZM81.853 49.256L80.637 45.984L79.413 49.256H81.853ZM86.8286 51L85.3886 48.608H85.3566H84.1566V51H83.7966V45.384H85.3406C85.9646 45.384 86.4313 45.5307 86.7406 45.824C87.0553 46.1173 87.2126 46.5067 87.2126 46.992C87.2126 47.424 87.09 47.7813 86.8446 48.064C86.6046 48.3413 86.2526 48.512 85.7886 48.576L87.2606 51H86.8286ZM84.1566 48.304H85.3566C85.8526 48.304 86.2233 48.184 86.4686 47.944C86.714 47.704 86.8366 47.3867 86.8366 46.992C86.8366 46.1333 86.338 45.704 85.3406 45.704H84.1566V48.304ZM88.641 45.688V48.032H90.881V48.336H88.641V50.696H91.121V51H88.281V45.384H91.121V45.688H88.641Z" fill="#333333"/>
<path d="M43.184 17H41.376V5.832H46.192C47.1947 5.832 47.984 6.136 48.56 6.744C49.136 7.34133 49.424 8.15733 49.424 9.192C49.424 9.992 49.2373 10.6587 48.864 11.192C48.5013 11.7147 47.9627 12.0827 47.248 12.296L49.664 17H47.648L45.408 12.488H43.184V17ZM46.064 10.968C46.5227 10.968 46.88 10.8507 47.136 10.616C47.392 10.3707 47.52 10.024 47.52 9.576V8.808C47.52 8.36 47.392 8.01867 47.136 7.784C46.88 7.53867 46.5227 7.416 46.064 7.416H43.184V10.968H46.064ZM51.8604 17V5.832H59.0124V7.432H53.6684V10.536H58.5164V12.136H53.6684V15.4H59.0124V17H51.8604ZM64.6888 17.192C63.7501 17.192 62.9501 17.0213 62.2888 16.68C61.6381 16.3387 61.0781 15.88 60.6088 15.304L61.8568 14.136C62.2514 14.616 62.6834 14.9787 63.1528 15.224C63.6328 15.4693 64.1768 15.592 64.7848 15.592C65.4994 15.592 66.0381 15.432 66.4008 15.112C66.7634 14.792 66.9448 14.36 66.9448 13.816C66.9448 13.3787 66.8168 13.032 66.5608 12.776C66.3048 12.52 65.8514 12.328 65.2008 12.2L64.2088 12.024C63.1208 11.8213 62.3048 11.464 61.7608 10.952C61.2168 10.44 60.9448 9.736 60.9448 8.84C60.9448 8.34933 61.0354 7.90667 61.2168 7.512C61.4088 7.10667 61.6701 6.77067 62.0008 6.504C62.3421 6.22667 62.7528 6.01333 63.2328 5.864C63.7128 5.71467 64.2514 5.64 64.8488 5.64C65.6914 5.64 66.4221 5.78933 67.0408 6.088C67.6594 6.376 68.1874 6.79733 68.6248 7.352L67.3608 8.472C67.0728 8.09867 66.7208 7.8 66.3048 7.576C65.8888 7.352 65.3714 7.24 64.7528 7.24C64.1128 7.24 63.6168 7.368 63.2648 7.624C62.9128 7.88 62.7368 8.25333 62.7368 8.744C62.7368 9.21333 62.8808 9.56533 63.1688 9.8C63.4568 10.024 63.9048 10.1947 64.5128 10.312L65.5048 10.52C66.6248 10.7333 67.4408 11.096 67.9528 11.608C68.4754 12.12 68.7368 12.824 68.7368 13.72C68.7368 14.2427 68.6461 14.7173 68.4648 15.144C68.2834 15.5707 68.0168 15.9387 67.6648 16.248C67.3234 16.5467 66.9021 16.7813 66.4008 16.952C65.8994 17.112 65.3288 17.192 64.6888 17.192ZM70.9073 17V5.832H78.0593V7.432H72.7153V10.536H77.5633V12.136H72.7153V15.4H78.0593V17H70.9073ZM82.1996 17H80.3916V5.832H85.2076C86.2103 5.832 86.9996 6.136 87.5756 6.744C88.1516 7.34133 88.4396 8.15733 88.4396 9.192C88.4396 9.992 88.253 10.6587 87.8796 11.192C87.517 11.7147 86.9783 12.0827 86.2636 12.296L88.6796 17H86.6636L84.4236 12.488H82.1996V17ZM85.0796 10.968C85.5383 10.968 85.8956 10.8507 86.1516 10.616C86.4076 10.3707 86.5356 10.024 86.5356 9.576V8.808C86.5356 8.36 86.4076 8.01867 86.1516 7.784C85.8956 7.53867 85.5383 7.416 85.0796 7.416H82.1996V10.968H85.0796ZM93.0145 17L89.3505 5.832H91.2225L92.9985 11.352L94.0705 15.24H94.1345L95.2225 11.352L96.9985 5.832H98.8225L95.1105 17H93.0145ZM100.485 17V5.832H107.637V7.432H102.293V10.536H107.141V12.136H102.293V15.4H107.637V17H100.485Z" fill="#333333"/>
<path d="M41.376 34V22.832H46.176C47.2107 22.832 48.0107 23.136 48.576 23.744C49.1413 24.352 49.424 25.168 49.424 26.192C49.424 27.216 49.1413 28.032 48.576 28.64C48.0107 29.248 47.2107 29.552 46.176 29.552H43.184V34H41.376ZM43.184 27.968H46.064C46.5227 27.968 46.88 27.8507 47.136 27.616C47.392 27.3707 47.52 27.024 47.52 26.576V25.808C47.52 25.36 47.392 25.0187 47.136 24.784C46.88 24.5387 46.5227 24.416 46.064 24.416H43.184V27.968ZM53.2153 34H51.4073V22.832H56.2233C57.2259 22.832 58.0153 23.136 58.5913 23.744C59.1673 24.3413 59.4553 25.1573 59.4553 26.192C59.4553 26.992 59.2686 27.6587 58.8953 28.192C58.5326 28.7147 57.9939 29.0827 57.2793 29.296L59.6953 34H57.6793L55.4393 29.488H53.2153V34ZM56.0953 27.968C56.5539 27.968 56.9113 27.8507 57.1673 27.616C57.4233 27.3707 57.5513 27.024 57.5513 26.576V25.808C57.5513 25.36 57.4233 25.0187 57.1673 24.784C56.9113 24.5387 56.5539 24.416 56.0953 24.416H53.2153V27.968H56.0953ZM66.0554 34.192C65.33 34.192 64.6687 34.0693 64.0714 33.824C63.4847 33.568 62.978 33.2 62.5514 32.72C62.1354 32.2293 61.81 31.6267 61.5754 30.912C61.3514 30.1867 61.2394 29.3547 61.2394 28.416C61.2394 27.4773 61.3514 26.6507 61.5754 25.936C61.81 25.2107 62.1354 24.608 62.5514 24.128C62.978 23.6373 63.4847 23.2693 64.0714 23.024C64.6687 22.768 65.33 22.64 66.0554 22.64C66.7807 22.64 67.4367 22.768 68.0234 23.024C68.6207 23.2693 69.1274 23.6373 69.5434 24.128C69.97 24.608 70.2954 25.2107 70.5194 25.936C70.754 26.6507 70.8714 27.4773 70.8714 28.416C70.8714 29.3547 70.754 30.1867 70.5194 30.912C70.2954 31.6267 69.97 32.2293 69.5434 32.72C69.1274 33.2 68.6207 33.568 68.0234 33.824C67.4367 34.0693 66.7807 34.192 66.0554 34.192ZM66.0554 32.576C66.482 32.576 66.8714 32.5013 67.2234 32.352C67.586 32.2027 67.89 31.9893 68.1354 31.712C68.3914 31.424 68.5887 31.0773 68.7274 30.672C68.866 30.2667 68.9354 29.808 68.9354 29.296V27.536C68.9354 27.024 68.866 26.5653 68.7274 26.16C68.5887 25.7547 68.3914 25.4133 68.1354 25.136C67.89 24.848 67.586 24.6293 67.2234 24.48C66.8714 24.3307 66.482 24.256 66.0554 24.256C65.618 24.256 65.2234 24.3307 64.8714 24.48C64.5194 24.6293 64.2154 24.848 63.9594 25.136C63.714 25.4133 63.522 25.7547 63.3834 26.16C63.2447 26.5653 63.1754 27.024 63.1754 27.536V29.296C63.1754 29.808 63.2447 30.2667 63.3834 30.672C63.522 31.0773 63.714 31.424 63.9594 31.712C64.2154 31.9893 64.5194 32.2027 64.8714 32.352C65.2234 32.5013 65.618 32.576 66.0554 32.576Z" fill="#333333"/>
<path d="M10.3333 2V8.66667M23.6667 2V8.66667M2 15.3333H32M12 25.3333L15.3333 28.6667L22 22M5.33333 5.33333H28.6667C30.5076 5.33333 32 6.82572 32 8.66667V32C32 33.8409 30.5076 35.3333 28.6667 35.3333H5.33333C3.49238 35.3333 2 33.8409 2 32V8.66667C2 6.82572 3.49238 5.33333 5.33333 5.33333Z" stroke="#6366F1" stroke-width="3" stroke-linecap="round" stroke-linejoin="round"/>
</svg>
